<svg width="128" height="128" viewBox="0 0 128 128" fill="none" xmlns="http://www.w3.org/2000/svg">
<path d="M88.9032 88.6574L74.5557 84.8391L88.9032 81.0173L92.725 66.6732L96.5434 81.0173L110.891 84.8391L96.5434 88.6574L92.725 103.005L88.9032 88.6574Z" fill="#004C59"/>
<path fill-rule="evenodd" clip-rule="evenodd" d="M15.6375 128C20.9908 115.425 26.3511 102.848 31.7184 90.269C34.7814 92.8238 46.4697 101.909 63.929 101.856C75.0161 101.824 83.8803 98.2862 89.6914 95.0191L88.1931 89.3884L82.5485 87.885C76.6031 89.47 70.4594 90.2761 64.2719 90.2696C54.0455 90.2588 43.9433 88.0283 34.6631 83.7322L63.741 15.4335H64.096C72.6566 35.0749 81.2181 54.7162 89.7804 74.3576L91.0403 69.6214L92.725 63.3073V63.3004L94.4062 69.6214L97.2534 80.3246L106.611 82.8168L69.7244 0H58.1022L2 128H15.6375ZM108.235 86.4636L107.957 86.5377L97.2534 89.3884L96.878 90.7992C99.5415 96.9345 102.138 102.97 104.734 109.004C107.443 115.3 110.151 121.594 112.934 128H126.735L108.235 86.4636ZM94.8391 91.6999L95.8333 87.9647L107.508 84.8565L95.8333 81.7482L92.725 70.053V70.0704L90.8989 76.9233C91.8974 79.2138 92.896 81.5043 93.8945 83.7949C91.2518 85.0115 88.5429 86.0607 85.784 86.9392L89.6132 87.9647L91.25 94.1072C92.6893 93.2312 93.8915 92.4025 94.8391 91.6999Z" fill="#004C59"/>
</svg>
