<svg width="32" height="32" viewBox="0 0 32 32" fill="none" xmlns="http://www.w3.org/2000/svg">
<path fill-rule="evenodd" clip-rule="evenodd" d="M15.3432 30.9029C15.936 30.9029 26.5279 18.8315 26.5279 12.2426C26.5279 5.65368 21.5203 0.312302 15.3432 0.312302C9.1661 0.312302 4.15857 5.65368 4.15857 12.2426C4.15857 18.8315 14.7505 30.9029 15.3432 30.9029ZM15.3432 18.2098C18.475 18.2098 21.0139 15.5016 21.0139 12.161C21.0139 8.82043 18.475 6.11235 15.3432 6.11235C12.2114 6.11235 9.67262 8.82043 9.67262 12.161C9.67262 15.5016 12.2114 18.2098 15.3432 18.2098Z" fill="#064651"/>
<path fill-rule="evenodd" clip-rule="evenodd" d="M4.15857 12.2426C4.15857 18.8315 14.7505 30.9029 15.3432 30.9029V18.2098C12.2114 18.2096 9.67262 15.5016 9.67262 12.161C9.67262 8.82045 12.2114 6.11237 15.3432 6.11235V0.312302C9.1661 0.312302 4.15857 5.65368 4.15857 12.2426Z" fill="#00798F"/>
</svg>
