<svg width="35" height="35" viewBox="0 0 35 35" fill="none" xmlns="http://www.w3.org/2000/svg">
<path d="M24.928 20.9629L24.1696 21.7091C24.1696 21.7091 22.3646 23.4813 17.4397 18.6422C12.5147 13.8031 14.3197 12.0309 14.3197 12.0309L14.7964 11.5598C15.9747 10.4036 16.0863 8.54566 15.058 7.18847L12.958 4.41645C11.6847 2.73643 9.22639 2.51408 7.76807 3.94703L5.15142 6.51647C4.42976 7.228 3.94643 8.14707 4.00476 9.16825C4.15476 11.7822 5.35142 17.4036 12.0247 23.9623C19.103 30.9162 25.7446 31.1929 28.4596 30.9425C29.3196 30.8635 30.0663 30.432 30.6679 29.839L33.0346 27.5133C34.6346 25.9437 34.1846 23.2507 32.1379 22.1521L28.9546 20.4408C27.6113 19.7194 25.9779 19.9319 24.928 20.9629Z" fill="#004C59"/>
</svg>
